<svg width="163" height="168" viewBox="0 0 163 168" fill="none" xmlns="http://www.w3.org/2000/svg">
<path d="M124.407 49.1246C140.854 49.1246 92.2059 63.0451 90.4833 79.4343C88.7607 95.8236 119.228 136.095 119.228 136.095C119.228 136.095 93.5879 103.688 78.7195 99.8655C62.759 95.7619 68.8526 112.856 50.4832 131.225C32.1138 149.595 70.271 99.874 62.0312 85.6023C53.7914 71.3306 -13.8575 72.0941 16.3439 72.0941C46.5453 72.0941 61.4005 70.5165 65.8114 67.0986C70.2224 63.6807 62.0312 21.3532 62.0312 21.3532C62.0312 21.3532 73.8273 60.4166 81.7454 60.4166C89.6635 60.4166 107.959 49.1246 124.407 49.1246Z" fill="url(#paint0_linear_202_57)" fill-opacity="0.7"/>
<path d="M124.407 49.1246C140.854 49.1246 92.2059 63.0451 90.4833 79.4343C88.7607 95.8236 119.228 136.095 119.228 136.095C119.228 136.095 93.5879 103.688 78.7195 99.8655C62.759 95.7619 68.8526 112.856 50.4832 131.225C32.1138 149.595 70.271 99.874 62.0312 85.6023C53.7914 71.3306 -13.8575 72.0941 16.3439 72.0941C46.5453 72.0941 61.4005 70.5165 65.8114 67.0986C70.2224 63.6807 62.0312 21.3532 62.0312 21.3532C62.0312 21.3532 73.8273 60.4166 81.7454 60.4166C89.6635 60.4166 107.959 49.1246 124.407 49.1246Z" fill="url(#paint1_linear_202_57)" fill-opacity="0.1"/>
<path d="M124.407 49.1246C140.854 49.1246 92.2059 63.0451 90.4833 79.4343C88.7607 95.8236 119.228 136.095 119.228 136.095C119.228 136.095 93.5879 103.688 78.7195 99.8655C62.759 95.7619 68.8526 112.856 50.4832 131.225C32.1138 149.595 70.271 99.874 62.0312 85.6023C53.7914 71.3306 -13.8575 72.0941 16.3439 72.0941C46.5453 72.0941 61.4005 70.5165 65.8114 67.0986C70.2224 63.6807 62.0312 21.3532 62.0312 21.3532C62.0312 21.3532 73.8273 60.4166 81.7454 60.4166C89.6635 60.4166 107.959 49.1246 124.407 49.1246Z" fill="url(#paint2_linear_202_57)" fill-opacity="0.2"/>
<path d="M77.7219 77.2512C76.514 72.8919 77.5986 68.8766 79.494 68.3514C81.3894 67.8263 81.8746 75.4941 83.0824 79.8535C84.2902 84.2129 81.3895 84.8231 79.4941 85.3483C77.5987 85.8734 78.9297 81.6106 77.7219 77.2512Z" fill="url(#paint3_linear_202_57)" fill-opacity="0.7"/>
<path d="M77.7219 77.2512C76.514 72.8919 77.5986 68.8766 79.494 68.3514C81.3894 67.8263 81.8746 75.4941 83.0824 79.8535C84.2902 84.2129 81.3895 84.8231 79.4941 85.3483C77.5987 85.8734 78.9297 81.6106 77.7219 77.2512Z" fill="black" fill-opacity="0.2"/>
<path d="M65.927 79.8535C65.7328 78.0106 65.8038 71.4789 67.6992 70.9538C69.5945 70.4286 70.0797 74.9291 71.2875 79.2885C72.4954 83.6478 73.9685 86.2153 72.0731 86.7405C66.7126 87.3055 67.1349 84.2129 65.927 79.8535Z" fill="url(#paint4_linear_202_57)" fill-opacity="0.7"/>
<path d="M65.927 79.8535C65.7328 78.0106 65.8038 71.4789 67.6992 70.9538C69.5945 70.4286 70.0797 74.9291 71.2875 79.2885C72.4954 83.6478 73.9685 86.2153 72.0731 86.7405C66.7126 87.3055 67.1349 84.2129 65.927 79.8535Z" fill="black" fill-opacity="0.2"/>
<path d="M85.0411 89.2656C88.7803 96.21 80.9382 93.717 76.3162 93.717C71.6943 93.717 68.3036 98.2245 68.3036 97.2412C68.3036 92.1145 71.6943 92.1145 76.3162 92.1145C80.9382 92.1145 82.1922 90.9051 85.0411 89.2656Z" fill="url(#paint5_linear_202_57)" fill-opacity="0.7"/>
<path d="M85.0411 89.2656C88.7803 96.21 80.9382 93.717 76.3162 93.717C71.6943 93.717 68.3036 98.2245 68.3036 97.2412C68.3036 92.1145 71.6943 92.1145 76.3162 92.1145C80.9382 92.1145 82.1922 90.9051 85.0411 89.2656Z" fill="url(#paint6_linear_202_57)" fill-opacity="0.49"/>
<path d="M82.5484 79.4723C82.5484 79.4723 81.758 83.9376 80.7831 83.9376C79.8081 83.9376 79.0178 84.8387 79.0178 83.9376C79.0178 83.0365 79.8081 82.3061 80.7831 82.3061C81.758 82.3061 82.5484 79.4723 82.5484 79.4723Z" fill="url(#paint7_linear_202_57)" fill-opacity="0.47"/>
<path d="M66.8792 83.0335C66.8792 83.0335 69.6495 86.5204 70.6184 86.0605C71.5872 85.6005 72.9313 86.2726 72.577 85.5263C72.2228 84.7801 71.0531 84.2308 70.0842 84.6907C69.1153 85.1506 66.8792 83.0335 66.8792 83.0335Z" fill="url(#paint8_linear_202_57)" fill-opacity="0.47"/>
<defs>
<linearGradient id="paint0_linear_202_57" x1="131.921" y1="56.9922" x2="32.9045" y2="114.159" gradientUnits="userSpaceOnUse">
<stop offset="0.916667" stop-color="#ADFF00"/>
<stop offset="1" stop-color="#ADFF00" stop-opacity="0"/>
</linearGradient>
<linearGradient id="paint1_linear_202_57" x1="131.921" y1="56.9922" x2="32.9045" y2="114.159" gradientUnits="userSpaceOnUse">
<stop offset="0.588542" stop-opacity="0"/>
<stop offset="0.692708" stop-color="white"/>
</linearGradient>
<linearGradient id="paint2_linear_202_57" x1="131.921" y1="56.9922" x2="32.9045" y2="114.159" gradientUnits="userSpaceOnUse">
<stop/>
<stop offset="1" stop-opacity="0"/>
</linearGradient>
<linearGradient id="paint3_linear_202_57" x1="77.3194" y1="89.1199" x2="71.9591" y2="69.7736" gradientUnits="userSpaceOnUse">
<stop stop-color="white"/>
<stop offset="1" stop-color="white" stop-opacity="0"/>
</linearGradient>
<linearGradient id="paint4_linear_202_57" x1="77.3194" y1="89.1199" x2="71.9591" y2="69.7736" gradientUnits="userSpaceOnUse">
<stop stop-color="white"/>
<stop offset="1" stop-color="white" stop-opacity="0"/>
</linearGradient>
<linearGradient id="paint5_linear_202_57" x1="77.1624" y1="89.2656" x2="77.1624" y2="97.3815" gradientUnits="userSpaceOnUse">
<stop offset="0.416667" stop-opacity="0.58"/>
<stop offset="1" stop-color="white" stop-opacity="0"/>
</linearGradient>
<linearGradient id="paint6_linear_202_57" x1="77.1624" y1="89.2656" x2="77.1624" y2="97.3815" gradientUnits="userSpaceOnUse">
<stop stop-color="white"/>
<stop offset="0.442708" stop-color="white" stop-opacity="0"/>
</linearGradient>
<linearGradient id="paint7_linear_202_57" x1="72.7551" y1="79.4723" x2="72.7551" y2="91.5803" gradientUnits="userSpaceOnUse">
<stop stop-color="#3D3D3D"/>
<stop offset="1" stop-color="#F8F8F8" stop-opacity="0"/>
</linearGradient>
<linearGradient id="paint8_linear_202_57" x1="68.7213" y1="82.159" x2="70.8605" y2="86.6654" gradientUnits="userSpaceOnUse">
<stop offset="0.9999" stop-opacity="0.43"/>
<stop offset="1" stop-color="#F8F8F8" stop-opacity="0"/>
</linearGradient>
</defs>
</svg>
